<svg xmlns="http://www.w3.org/2000/svg" xmlns:xlink="http://www.w3.org/1999/xlink" width="500" zoomAndPan="magnify" viewBox="0 0 375 149.999998" height="200" preserveAspectRatio="xMidYMid meet" version="1.0"><defs><g/></defs><g fill="#ffffff" fill-opacity="1"><g transform="translate(50.206491, 109.499996)"><g><path d="M 33.5 -70.5 C 40.894531 -70.5 47.375 -69.015625 52.9375 -66.046875 C 58.507812 -63.078125 62.796875 -58.925781 65.796875 -53.59375 C 68.796875 -48.257812 70.296875 -42.160156 70.296875 -35.296875 C 70.296875 -28.492188 68.78125 -22.425781 65.75 -17.09375 C 62.71875 -11.757812 58.414062 -7.578125 52.84375 -4.546875 C 47.28125 -1.515625 40.832031 0 33.5 0 L 5.59375 0 L 5.59375 -70.5 Z M 32 -17.296875 C 37.726562 -17.296875 42.226562 -18.863281 45.5 -22 C 48.769531 -25.132812 50.40625 -29.566406 50.40625 -35.296875 C 50.40625 -41.097656 48.769531 -45.582031 45.5 -48.75 C 42.226562 -51.914062 37.726562 -53.5 32 -53.5 L 25.203125 -53.5 L 25.203125 -17.296875 Z M 32 -17.296875 "/></g></g></g><g fill="#ffffff" fill-opacity="1"><g transform="translate(123.70366, 109.499996)"><g><path d="M 87.90625 -70.5 L 87.90625 0 L 68.296875 0 L 68.296875 -38.90625 L 55 0 L 38.59375 0 L 25.203125 -39.203125 L 25.203125 0 L 5.59375 0 L 5.59375 -70.5 L 29.296875 -70.5 L 47 -24.703125 L 64.296875 -70.5 Z M 87.90625 -70.5 "/></g></g></g><g fill="#ffffff" fill-opacity="1"><g transform="translate(217.200053, 109.499996)"><g><path d="M 104.90625 -70.5 L 87.59375 0 L 63.5 0 L 53.796875 -43.203125 L 43.90625 0 L 19.796875 0 L 2.703125 -70.5 L 23.90625 -70.5 L 32.09375 -22.296875 L 43.203125 -70.5 L 64.703125 -70.5 L 75.5 -22.703125 L 83.703125 -70.5 Z M 104.90625 -70.5 "/></g></g></g></svg>